<svg xmlns="http://www.w3.org/2000/svg" width="1200" height="720" viewBox="0 0 1200 720"><defs><linearGradient id="nav" x1="0" y1="0" x2="0" y2="1"><stop stop-color="#172554"/><stop offset="1" stop-color="#1e3a8a"/></linearGradient></defs><rect width="1200" height="720" rx="24" fill="#eef4fb"/><rect x="28" y="28" width="1144" height="664" rx="18" fill="#fff" stroke="#dce4f0"/><rect x="28" y="28" width="235" height="664" rx="18" fill="url(#nav)"/><text x="55" y="68" font-family="Arial,sans-serif" font-size="20" font-weight="700" fill="#fff">AdvocateDesk</text><text x="55" y="91" font-family="Arial,sans-serif" font-size="11" fill="#9da7b7">Practice Management</text><g font-family="Arial,sans-serif" font-size="14"><text x="63" y="145" fill="#dfe8ff">Dashboard</text><text x="63" y="187" fill="#dfe8ff">Cases</text><text x="63" y="229" fill="#dfe8ff">Clients</text><text x="63" y="271" fill="#dfe8ff">Hearings</text><text x="63" y="313" fill="#dfe8ff">Calendar</text><text x="63" y="355" fill="#dfe8ff">Documents</text><text x="63" y="397" fill="#dfe8ff">Tasks</text><rect x="45" y="414" width="200" height="42" rx="9" fill="#3155a6"/><text x="63" y="441" fill="#fff" font-weight="700">Finance</text><text x="63" y="481" fill="#dfe8ff">Reports</text></g><rect x="245" y="28" width="927" height="62" fill="#fff" stroke="#dce4f0"/><text x="280" y="128" font-family="Arial,sans-serif" font-size="25" font-weight="700" fill="#18243a">Finance</text><text x="280" y="151" font-family="Arial,sans-serif" font-size="12" fill="#667085">Case fees, additional charges and payments</text><g font-family="Arial,sans-serif"><rect x="280" y="178" width="205" height="125" rx="12" fill="#fff" stroke="#dce4f0"/><rect x="280" y="178" width="205" height="5" rx="2" fill="#356ae6"/><text x="300" y="210" font-size="12" fill="#667085">Agreed Fees</text><text x="300" y="251" font-size="27" font-weight="700" fill="#18243a">Rs 2,40,000</text><text x="300" y="278" font-size="10" fill="#138a5b">Across all case fees</text><rect x="500" y="178" width="205" height="125" rx="12" fill="#fff" stroke="#dce4f0"/><rect x="500" y="178" width="205" height="5" rx="2" fill="#7657d9"/><text x="520" y="210" font-size="12" fill="#667085">Additional Charges</text><text x="520" y="251" font-size="27" font-weight="700" fill="#18243a">Rs 35,000</text><text x="520" y="278" font-size="10" fill="#138a5b">Added above agreed fees</text><rect x="720" y="178" width="205" height="125" rx="12" fill="#fff" stroke="#dce4f0"/><rect x="720" y="178" width="205" height="5" rx="2" fill="#078b8b"/><text x="740" y="210" font-size="12" fill="#667085">Amount Received</text><text x="740" y="251" font-size="27" font-weight="700" fill="#18243a">Rs 1,50,000</text><text x="740" y="278" font-size="10" fill="#138a5b">Case fee payments</text><rect x="940" y="178" width="205" height="125" rx="12" fill="#fff" stroke="#dce4f0"/><rect x="940" y="178" width="205" height="5" rx="2" fill="#e68a2e"/><text x="960" y="210" font-size="12" fill="#667085">Outstanding Fees</text><text x="960" y="251" font-size="27" font-weight="700" fill="#18243a">Rs 1,25,000</text><text x="960" y="278" font-size="10" fill="#138a5b">Total payable less received</text><rect x="280" y="327" width="865" height="310" rx="12" fill="#fff" stroke="#dce4f0"/><rect x="280" y="327" width="865" height="55" rx="12" fill="#f4f8ff"/><text x="300" y="361" font-size="15" font-weight="700" fill="#18243a">Case Fee Details</text><rect x="300" y="405" width="825" height="38" fill="#fbfcfd"/><g font-size="10" fill="#7a8494" font-weight="700"><text x="315" y="429">Case Number</text><text x="470" y="429">Client</text><text x="585" y="429">Agreed Fees</text><text x="690" y="429">Additional</text><text x="790" y="429">Total Payable</text><text x="920" y="429">Received</text><text x="1010" y="429">Balance</text></g><g font-family="Arial,sans-serif" font-size="10" fill="#18243a"><line x1="300" y1="443" x2="1125" y2="443" stroke="#eef0f3"/><text x="315" y="468" font-weight="700">OP 142/26</text><text x="470" y="468">Client A</text><text x="585" y="468">Rs 80,000</text><text x="690" y="468">Rs 10,000</text><text x="790" y="468" font-weight="700">Rs 90,000</text><text x="920" y="468">Rs 60,000</text><text x="1010" y="468" font-weight="700">Rs 30,000</text><line x1="300" y1="488" x2="1125" y2="488" stroke="#eef0f3"/><text x="315" y="513" font-weight="700">CC 81/26</text><text x="470" y="513">Client B</text><text x="585" y="513">Rs 60,000</text><text x="690" y="513">Rs 5,000</text><text x="790" y="513" font-weight="700">Rs 65,000</text><text x="920" y="513">Rs 40,000</text><text x="1010" y="513" font-weight="700">Rs 25,000</text><line x1="300" y1="533" x2="1125" y2="533" stroke="#eef0f3"/><text x="315" y="558" font-weight="700">WP 33/26</text><text x="470" y="558">Client C</text><text x="585" y="558">Rs 1,00,000</text><text x="690" y="558">Rs 20,000</text><text x="790" y="558" font-weight="700">Rs 1,20,000</text><text x="920" y="558">Rs 50,000</text><text x="1010" y="558" font-weight="700">Rs 70,000</text></g></svg>